<svg xmlns="http://www.w3.org/2000/svg" data-name="Layer 1" viewBox="0 0 512 512" id="auction"><path d="M23.418 490H309.637A8.735 8.735 0 0 0 318 481.525V459.8a26.687 26.687 0 0 0-25-26.419V419.838C293 405.229 281.183 393 266.573 393H66.483C51.873 393 40 405.229 40 419.838v13.544A26.687 26.687 0 0 0 15 459.8v21.724A8.784 8.784 0 0 0 23.418 490zm43.065-81h200.09C272.36 409 277 414.051 277 419.838V433H56V419.838A10.8 10.8 0 0 1 66.483 409zM31 459.8A11.137 11.137 0 0 1 41.915 449H291.141A11.087 11.087 0 0 1 302 459.8V474H31zM106.341 231.816l83.791 74.117a8 8 0 0 0 11.293-.692l26.942-30.459a8 8 0 0 0-.691-11.292l-3.765-3.33a215.448 215.448 0 0 0 42.858-27.737l42.319 37.433-2.838 3.209a8 8 0 0 0 .692 11.292L422.016 386.145A44.52 44.52 0 0 0 451.67 397.4q1.4 0 2.8-.086a44.559 44.559 0 0 0 30.851-15.051h0a44.9 44.9 0 0 0-3.879-63.31L366.372 217.169a8 8 0 0 0-11.292.692l-2.839 3.209-42.319-37.433a215.441 215.441 0 0 0 22.3-45.923l3.764 3.329a8 8 0 0 0 11.292-.691l26.943-30.459a8 8 0 0 0-.692-11.293L289.736 24.483a8 8 0 0 0-11.293.692L251.5 55.634a8 8 0 0 0 .692 11.293l4.726 4.181A213.459 213.459 0 0 0 148.611 193.554l-4.727-4.181a8 8 0 0 0-11.292.691l-26.943 30.46A8 8 0 0 0 106.341 231.816zm367 139.85a28.849 28.849 0 0 1-40.724 2.5l-83-73.42 38.229-43.219 83 73.419A28.883 28.883 0 0 1 473.34 371.666zM361.764 234.454l14.094 12.467L337.629 290.14l-14.1-12.467zm-20.124-1.4l-21.951 24.817-40.915-36.191q5.968-5.765 11.477-11.965 5.49-6.207 10.474-12.853zM285.127 41.768l71.807 63.516-16.341 18.475L268.785 60.243zm-82.563 90.385a198.878 198.878 0 0 1 67.414-49.494l49.183 43.5A197.543 197.543 0 0 1 210.852 248.609l-49.182-43.5A198.865 198.865 0 0 1 202.564 132.153zm-63.288 74.5l71.807 63.517-16.342 18.474-71.807-63.516zM32 316H92a8 8 0 0 0 0-16H32a8 8 0 0 0 0 16zM60.253 252.924l38.933 20.491a8 8 0 0 0 7.452-14.159L67.705 238.765a8 8 0 0 0-7.452 14.159zM99.186 341.22L60.253 361.71a8 8 0 1 0 7.452 14.16l38.933-20.491a8 8 0 0 0-7.452-14.159z"></path></svg>