<svg xmlns="http://www.w3.org/2000/svg" width="32" height="32" id="auction"><path d="M16.754 2.498c-.243.013-.49.119-.686.315-.391.391-.423.99-.07 1.343l.074.076a.998.998 0 0 1-.447 1.672.99.99 0 0 1-.967-.258l-.004-.01-5.658 5.659.012.012a1 1 0 0 1-1.42 1.406l-.076-.074c-.353-.353-.952-.322-1.344.07-.392.391-.423.991-.07 1.344l5.091 5.09c.353.352.952.32 1.344-.07.392-.392.423-.992.07-1.344l-.07-.07a1.002 1.002 0 0 1 .447-1.674c.345-.092.714.01.967.26l1.414-1.415 1.06 1.061a1.492 1.492 0 0 0 1.704.29l9.256 9.255a1 1 0 1 0 1.416 1.414l1.414-1.414a.998.998 0 0 0 0-1.414.998.998 0 0 0-1.414 0l-9.248-9.268-.008.01a1.492 1.492 0 0 0-.291-1.699l-1.06-1.06 1.413-1.415a1.002 1.002 0 0 1 .447-1.673.989.989 0 0 1 .96.252l.078.078c.352.352.952.321 1.343-.07.392-.392.423-.992.07-1.344l-5.09-5.092a.857.857 0 0 0-.657-.244zM3.5 25c-.286 0-.5.215-.5.5V27c-.563 0-1 .438-1 1v1h11v-1c0-.562-.437-1-1-1v-1.5c0-.285-.214-.5-.5-.5h-8z"></path></svg>